<?xml version="1.0" encoding="utf-8"?>
<!-- Generator: Adobe Illustrator 25.2.0, SVG Export Plug-In . SVG Version: 6.00 Build 0)  -->
<svg version="1.1" id="Capa_1" xmlns="http://www.w3.org/2000/svg" xmlns:xlink="http://www.w3.org/1999/xlink" x="0px" y="0px"
	 viewBox="0 0 32 32" style="enable-background:new 0 0 32 32;" xml:space="preserve">
<style type="text/css">
	.st0{fill:url(#Vector_1_);}
	.st1{fill:#2684FF;}
	.st2{fill:#F7E281;}
</style>
<g>
	<circle class="st2" cx="3.3" cy="3.4" r="3.2"/>
	<circle class="st2" cx="28.6" cy="3.4" r="3.2"/>
	<circle class="st2" cx="3.3" cy="28.6" r="3.2"/>
	<circle class="st2" cx="28.6" cy="28.6" r="3.2"/>
	<circle class="st2" cx="16" cy="16" r="3.2"/>
	<circle class="st2" cx="15.8" cy="3.3" r="2.4"/>
	<circle class="st2" cx="22.1" cy="9.8" r="2.4"/>
	<circle class="st2" cx="9.8" cy="9.8" r="2.4"/>
	<circle class="st2" cx="9.8" cy="22.3" r="2.4"/>
	<circle class="st2" cx="22.1" cy="22.3" r="2.4"/>
	<circle class="st2" cx="16" cy="28.6" r="2.4"/>
	<circle class="st2" cx="9.7" cy="3.2" r="1.4"/>
	<circle class="st2" cx="22.1" cy="3.4" r="1.4"/>
	<circle class="st2" cx="16" cy="9.8" r="1.4"/>
	<circle class="st2" cx="3.3" cy="9.8" r="1.4"/>
	<circle class="st2" cx="28.6" cy="9.8" r="1.4"/>
	<circle class="st2" cx="22.1" cy="16" r="1.4"/>
	<circle class="st2" cx="9.8" cy="16" r="1.4"/>
	<circle class="st2" cx="3.3" cy="22.3" r="1.4"/>
	<circle class="st2" cx="28.6" cy="22.3" r="1.4"/>
	<circle class="st2" cx="16" cy="22.3" r="1.4"/>
	<circle class="st2" cx="9.7" cy="28.6" r="1.4"/>
	<circle class="st2" cx="22.1" cy="28.6" r="1.4"/>
	<circle class="st2" cx="28.6" cy="16" r="2.4"/>
	<circle class="st2" cx="3.3" cy="16" r="2.4"/>
</g>
</svg>
